<svg width="18" height="18" viewBox="0 0 18 18" fill="none" xmlns="http://www.w3.org/2000/svg">
<path d="M14.0625 4.47852V11.3848C14.0625 11.5257 14.0032 11.6608 13.8977 11.7604C13.7923 11.86 13.6492 11.916 13.5 11.916C13.3508 11.916 13.2077 11.86 13.1023 11.7604C12.9968 11.6608 12.9375 11.5257 12.9375 11.3848V5.76082L4.89797 13.3544C4.79242 13.4541 4.64927 13.5101 4.5 13.5101C4.35073 13.5101 4.20758 13.4541 4.10203 13.3544C3.99648 13.2547 3.93719 13.1195 3.93719 12.9785C3.93719 12.8375 3.99648 12.7023 4.10203 12.6027L12.1423 5.00977H6.1875C6.03832 5.00977 5.89524 4.95379 5.78975 4.85417C5.68426 4.75454 5.625 4.61941 5.625 4.47852C5.625 4.33762 5.68426 4.20249 5.78975 4.10287C5.89524 4.00324 6.03832 3.94727 6.1875 3.94727H13.5C13.6492 3.94727 13.7923 4.00324 13.8977 4.10287C14.0032 4.20249 14.0625 4.33762 14.0625 4.47852Z" fill="#683614"/>
</svg>
