<svg width="18" height="20" viewBox="0 0 18 20" fill="none" xmlns="http://www.w3.org/2000/svg">
<path d="M9 3.60873C5.08173 3.60873 1.89415 6.8957 1.89415 10.9362C1.89415 14.9767 5.08177 18.2637 9 18.2637C12.9183 18.2637 16.1059 14.9767 16.1059 10.9362C16.1059 6.8957 12.9182 3.60873 9 3.60873ZM9 17.5569C5.45126 17.5569 2.56374 14.5867 2.56374 10.9362C2.56374 7.28575 5.45126 4.31552 9 4.31552C12.5487 4.31552 15.4363 7.28575 15.4363 10.9362C15.4363 14.5867 12.5487 17.5569 9 17.5569ZM8.97993 10.9362L13.4995 14.6304C12.951 15.3278 12.2632 15.8884 11.4853 16.2722C10.7074 16.6559 9.85866 16.8533 9 16.8501C5.81952 16.8501 3.23332 14.197 3.23332 10.9362C3.23332 7.68238 5.80908 5.03373 8.97951 5.02271V10.9362L8.97993 10.9362ZM9 2.90199C8.20547 2.90146 7.41541 3.02744 6.65649 3.27568V2.31978C6.65649 2.02103 6.76892 1.73452 6.96904 1.52328C7.16917 1.31204 7.4406 1.19336 7.72362 1.19336H10.2793C10.5618 1.19418 10.8325 1.31322 11.032 1.52438C11.2315 1.73553 11.3435 2.02157 11.3435 2.31978V3.27571C10.5846 3.02745 9.79452 2.90148 9 2.90199ZM13.533 4.41271L14.2403 3.67987C14.5495 3.35917 14.9881 3.2916 15.2203 3.52836L15.9376 4.26119C16.1695 4.49795 16.105 4.94987 15.7974 5.27057L15.1141 5.97731C14.659 5.38043 14.1269 4.85377 13.5334 4.41271H13.533ZM2.89811 5.96229L2.21639 5.2555C1.90712 4.9348 1.83976 4.48645 2.06867 4.2541L2.77295 3.53496C3.00062 3.30266 3.43586 3.37376 3.74509 3.69446L4.44983 4.42507C3.86826 4.85996 3.34612 5.37722 2.89811 5.96232V5.96229Z" fill="#683614"/>
</svg>
