<svg width="11" height="12" viewBox="0 0 11 12" fill="none" xmlns="http://www.w3.org/2000/svg">
<path d="M10.2813 3.10351V11.2285C10.2813 11.3943 10.2253 11.5532 10.1257 11.6705C10.026 11.7877 9.8909 11.8535 9.75 11.8535H2.84376C2.70286 11.8535 2.56773 11.7877 2.4681 11.6705C2.36848 11.5532 2.31251 11.3943 2.31251 11.2285C2.31251 11.0628 2.36848 10.9038 2.4681 10.7866C2.56773 10.6694 2.70286 10.6035 2.84376 10.6035H8.4677L0.874146 1.6707C0.774462 1.55342 0.71846 1.39436 0.71846 1.22851C0.71846 1.06266 0.774462 0.9036 0.874146 0.786325C0.97383 0.669049 1.10903 0.603165 1.25001 0.603165C1.39098 0.603165 1.52618 0.669049 1.62586 0.786325L9.21876 9.71992V3.10351C9.21876 2.93775 9.27473 2.77878 9.37435 2.66157C9.47398 2.54436 9.60911 2.47851 9.75 2.47851C9.8909 2.47851 10.026 2.54436 10.1257 2.66157C10.2253 2.77878 10.2813 2.93775 10.2813 3.10351Z" fill="#683614"/>
</svg>
