<svg width="80" height="35" viewBox="0 0 80 35" fill="none" xmlns="http://www.w3.org/2000/svg">
<rect width="80" height="35" rx="17.5" fill="#ECD7C2"/>
<path d="M34.0124 21V15.52H36.0524C36.6858 15.52 37.2158 15.6433 37.6424 15.89C38.0691 16.1367 38.3891 16.4667 38.6024 16.88C38.8158 17.2867 38.9224 17.7433 38.9224 18.25C38.9224 18.8033 38.8024 19.2867 38.5624 19.7C38.3291 20.1133 37.9991 20.4333 37.5724 20.66C37.1458 20.8867 36.6391 21 36.0524 21H34.0124ZM38.2824 18.25C38.2824 17.8233 38.1958 17.45 38.0224 17.13C37.8491 16.8033 37.5958 16.5467 37.2624 16.36C36.9358 16.1733 36.5324 16.08 36.0524 16.08H34.6324V20.44H36.0524C36.5391 20.44 36.9491 20.3467 37.2824 20.16C37.6158 19.9667 37.8658 19.7033 38.0324 19.37C38.1991 19.0367 38.2824 18.6633 38.2824 18.25ZM40.2234 21V15.53H40.8434V21H40.2234ZM42.528 21V15.52H46.448V16.08H43.148V17.98H45.948V18.52H43.148V21H42.528ZM47.655 21V15.52H51.575V16.08H48.275V17.98H51.075V18.52H48.275V21H47.655ZM52.782 21V15.53H53.402V21H52.782ZM54.6866 18.22C54.6866 17.8867 54.7466 17.56 54.8666 17.24C54.9933 16.92 55.1766 16.6267 55.4166 16.36C55.6633 16.0933 55.9633 15.8833 56.3166 15.73C56.67 15.57 57.0733 15.49 57.5266 15.49C58.0533 15.49 58.5066 15.6033 58.8866 15.83C59.2666 16.05 59.55 16.3367 59.7366 16.69L59.2366 17.01C59.05 16.65 58.7933 16.4033 58.4666 16.27C58.14 16.13 57.8166 16.06 57.4966 16.06C57.1433 16.06 56.83 16.1233 56.5566 16.25C56.2833 16.3767 56.0533 16.5467 55.8666 16.76C55.6866 16.9667 55.55 17.2 55.4566 17.46C55.3633 17.72 55.3166 17.9833 55.3166 18.25C55.3166 18.5433 55.37 18.8233 55.4766 19.09C55.59 19.3567 55.7433 19.5967 55.9366 19.81C56.1366 20.0167 56.37 20.18 56.6366 20.3C56.9033 20.42 57.1966 20.48 57.5166 20.48C57.7366 20.48 57.9633 20.4467 58.1966 20.38C58.43 20.3067 58.6466 20.2 58.8466 20.06C59.0466 19.9133 59.2066 19.7233 59.3266 19.49L59.8566 19.78C59.7233 20.0467 59.5266 20.2767 59.2666 20.47C59.0133 20.6567 58.7266 20.8 58.4066 20.9C58.0933 21 57.7833 21.05 57.4766 21.05C57.07 21.05 56.6933 20.97 56.3466 20.81C56.0066 20.6433 55.71 20.4267 55.4566 20.16C55.21 19.8867 55.02 19.5833 54.8866 19.25C54.7533 18.91 54.6866 18.5667 54.6866 18.22ZM61.0339 21V15.53H61.6539V21H61.0339ZM63.3386 21V15.52H63.9586V20.44H67.2686V21H63.3386ZM72.3198 20.44V21H68.2898V15.52H72.2398V16.08H68.9098V17.95H71.8198V18.47H68.9098V20.44H72.3198Z" fill="#683614"/>
<path d="M7 22L13.8276 13.5L17.2414 17.5L13.8276 21H17.2414L22.3621 15.5L28.6207 22H7Z" fill="#BE5632" fill-opacity="0.9"/>
<ellipse cx="21.7931" cy="11.5" rx="2.84483" ry="2.5" fill="#BE5632" fill-opacity="0.9"/>
</svg>
