<svg width="90" height="35" viewBox="0 0 90 35" fill="none" xmlns="http://www.w3.org/2000/svg">
<rect width="90" height="35" rx="17.5" fill="#ECD7C2"/>
<path d="M45.11 21V16.65L42.97 20H42.61L40.46 16.65V21H39.84V15.52H40.49L42.79 19.16L45.09 15.52H45.74V21H45.11ZM49.8184 21.04C49.3984 21.04 49.015 20.9633 48.6684 20.81C48.3284 20.65 48.0317 20.44 47.7784 20.18C47.5317 19.9133 47.3417 19.6167 47.2084 19.29C47.075 18.9567 47.0084 18.6133 47.0084 18.26C47.0084 17.8933 47.0784 17.5467 47.2184 17.22C47.3584 16.8867 47.555 16.59 47.8084 16.33C48.0617 16.07 48.3584 15.8667 48.6984 15.72C49.045 15.5667 49.4217 15.49 49.8284 15.49C50.2417 15.49 50.6184 15.57 50.9584 15.73C51.305 15.89 51.6017 16.1033 51.8484 16.37C52.095 16.6367 52.285 16.9367 52.4184 17.27C52.5517 17.5967 52.6184 17.93 52.6184 18.27C52.6184 18.6367 52.5484 18.9867 52.4084 19.32C52.2684 19.6533 52.0717 19.95 51.8184 20.21C51.5717 20.4633 51.275 20.6667 50.9284 20.82C50.5884 20.9667 50.2184 21.04 49.8184 21.04ZM47.6384 18.26C47.6384 18.5467 47.6884 18.8233 47.7884 19.09C47.895 19.35 48.045 19.5867 48.2384 19.8C48.4317 20.0067 48.6617 20.17 48.9284 20.29C49.2017 20.41 49.4984 20.47 49.8184 20.47C50.1517 20.47 50.4517 20.4067 50.7184 20.28C50.985 20.1533 51.2117 19.9833 51.3984 19.77C51.585 19.5567 51.7284 19.32 51.8284 19.06C51.935 18.8 51.9884 18.5333 51.9884 18.26C51.9884 17.9733 51.935 17.7 51.8284 17.44C51.7217 17.1733 51.5717 16.9367 51.3784 16.73C51.185 16.5233 50.955 16.36 50.6884 16.24C50.4217 16.12 50.1317 16.06 49.8184 16.06C49.485 16.06 49.1817 16.1233 48.9084 16.25C48.6417 16.37 48.4117 16.5367 48.2184 16.75C48.0317 16.9633 47.8884 17.2 47.7884 17.46C47.6884 17.72 47.6384 17.9867 47.6384 18.26ZM53.5714 15.52L55.5014 18.42L57.4414 15.52H58.1314L55.8114 18.98V21H55.1814V18.97L52.8914 15.52H53.5714ZM63.1766 20.44V21H59.1466V15.52H63.0966V16.08H59.7666V17.95H62.6766V18.47H59.7666V20.44H63.1766ZM65.0791 16.69V21H64.4591V15.52H64.9391L68.8391 19.91V15.53H69.4691V21H68.9291L65.0791 16.69Z" fill="#683614"/>
<path d="M16 22L22 13.5L25 17.5L22 21H25L29.5 15.5L35 22H16Z" fill="#BE5632" fill-opacity="0.9"/>
<circle cx="29" cy="11.5" r="2.5" fill="#BE5632" fill-opacity="0.9"/>
</svg>
