<svg width="90" height="35" viewBox="0 0 90 35" fill="none" xmlns="http://www.w3.org/2000/svg">
<rect width="90" height="35" rx="17.5" fill="#ECD7C2"/>
<path d="M39.84 21V15.52H43.76V16.08H40.46V17.98H43.26V18.52H40.46V21H39.84ZM43.8184 21L46.3184 15.52H46.8384L49.3184 21H48.6584L47.8984 19.35H45.2484L44.4984 21H43.8184ZM46.5784 16.3L45.3984 18.8H47.7384L46.5784 16.3ZM49.7427 18.22C49.7427 17.8867 49.8027 17.56 49.9227 17.24C50.0494 16.92 50.2327 16.6267 50.4727 16.36C50.7194 16.0933 51.0194 15.8833 51.3727 15.73C51.7261 15.57 52.1294 15.49 52.5827 15.49C53.1094 15.49 53.5627 15.6033 53.9427 15.83C54.3227 16.05 54.6061 16.3367 54.7927 16.69L54.2927 17.01C54.1061 16.65 53.8494 16.4033 53.5227 16.27C53.1961 16.13 52.8727 16.06 52.5527 16.06C52.1994 16.06 51.8861 16.1233 51.6127 16.25C51.3394 16.3767 51.1094 16.5467 50.9227 16.76C50.7427 16.9667 50.6061 17.2 50.5127 17.46C50.4194 17.72 50.3727 17.9833 50.3727 18.25C50.3727 18.5433 50.4261 18.8233 50.5327 19.09C50.6461 19.3567 50.7994 19.5967 50.9927 19.81C51.1927 20.0167 51.4261 20.18 51.6927 20.3C51.9594 20.42 52.2527 20.48 52.5727 20.48C52.7927 20.48 53.0194 20.4467 53.2527 20.38C53.4861 20.3067 53.7027 20.2 53.9027 20.06C54.1027 19.9133 54.2627 19.7233 54.3827 19.49L54.9127 19.78C54.7794 20.0467 54.5827 20.2767 54.3227 20.47C54.0694 20.6567 53.7827 20.8 53.4627 20.9C53.1494 21 52.8394 21.05 52.5327 21.05C52.1261 21.05 51.7494 20.97 51.4027 20.81C51.0627 20.6433 50.7661 20.4267 50.5127 20.16C50.2661 19.8867 50.0761 19.5833 49.9427 19.25C49.8094 18.91 49.7427 18.5667 49.7427 18.22ZM56.09 21V15.53H56.71V21H56.09ZM58.3947 21V15.52H59.0147V20.44H62.3247V21H58.3947ZM67.3759 20.44V21H63.3459V15.52H67.2959V16.08H63.9659V17.95H66.8759V18.47H63.9659V20.44H67.3759Z" fill="#683614"/>
<path d="M16 22L22 13.5L25 17.5L22 21H25L29.5 15.5L35 22H16Z" fill="#BE5632" fill-opacity="0.9"/>
<circle cx="29" cy="11.5" r="2.5" fill="#BE5632" fill-opacity="0.9"/>
</svg>
